<svg width="705" height="791" viewBox="0 0 705 791" fill="none" xmlns="http://www.w3.org/2000/svg">
<path opacity="0.139718" fill-rule="evenodd" clip-rule="evenodd" d="M1.07453 278.096C0.278957 280.776 0.00652107 305.791 0 338.561V341.151C0.0137667 408.61 1.09699 635.45 1.07598 641.07C0.949178 674.417 20.7884 709.422 70.5558 743.655C143.48 793.817 197.599 774.026 250.092 762.101C293.713 752.193 334.829 742.284 381 768C482.734 824.664 552.729 764.831 659.732 694.074C688.187 675.258 701.611 652.995 703.166 628.937C703.572 622.672 704.473 549.502 704.481 483.578V481.696C704.475 429.556 703.899 382.407 702.064 377.168C681.698 319.027 602.602 329.093 511.255 280.127C412.946 227.43 324.03 196.958 245.133 196.962C201.631 196.964 161.164 206.231 123.871 226.146C67.9662 255.999 14.8115 231.851 1.07453 278.096Z" fill="url(#paint0_linear)"/>
<path fill-rule="evenodd" clip-rule="evenodd" d="M659.732 461.199C552.73 531.956 484.737 470.758 383.003 414.093C281.269 357.43 204.079 473.727 70.5554 381.881C-62.9693 290.033 18.9433 192.628 123.871 136.596C228.799 80.5637 358.741 108.824 511.255 190.578C661.188 270.948 766.735 390.442 659.732 461.199Z" fill="#C59FFF"/>
<path fill-rule="evenodd" clip-rule="evenodd" d="M241.283 297.197C241.485 300.386 245.735 302.61 245.735 302.61L442.314 411.835C442.314 411.835 447.934 415.394 454.704 411.835C461.974 408.013 611.815 320.034 611.815 320.034C611.815 320.034 617.995 317.197 618.431 312.129C618.443 312.345 618.457 312.561 618.457 312.793V320.803C618.457 326.224 611.815 329.271 611.815 329.271C611.815 329.271 461.974 412.338 454.704 416.16C447.934 419.719 442.314 416.16 442.314 416.16L245.735 306.936C245.735 306.936 241.264 304.603 241.264 301.29V298.206C241.268 298.128 241.271 297.265 241.276 296.654C241.279 296.945 241.282 297.171 241.283 297.197" fill="#DDDDFC"/>
<path fill-rule="evenodd" clip-rule="evenodd" d="M245.096 290.706L408.082 195.101C413.958 191.91 418.173 195.101 418.173 195.101L611.815 302.853C611.815 302.853 618.456 306.411 618.456 311.566C618.456 311.757 618.446 311.944 618.43 312.128C617.995 317.196 611.815 320.034 611.815 320.034C611.815 320.034 461.974 408.013 454.704 411.835C447.934 415.394 442.314 411.835 442.314 411.835L245.734 302.61C245.734 302.61 241.486 300.385 241.283 297.197C241.282 297.171 241.279 296.944 241.276 296.654C241.271 296.075 241.264 295.235 241.264 295.183C241.264 292.627 245.096 290.706 245.096 290.706" fill="#F6F6FF"/>
<path fill-rule="evenodd" clip-rule="evenodd" d="M625.936 303.516C626.105 303.416 626.266 303.311 626.422 303.202C630.696 300.202 629.994 293.655 629.994 293.655C629.994 293.655 630 129.846 629.604 121.893C629.235 114.487 623.143 111.735 623.143 111.735L423.638 2.60866C423.638 2.60866 419.447 0.285975 416.511 1.78172C416.487 1.79426 416.284 1.9099 416.024 2.05899C415.883 2.1412 415.724 2.23176 415.566 2.32233C415.566 2.32233 415.567 2.32233 415.567 2.32163C416.377 1.8054 417.985 1.03001 418.503 0.732538C418.761 0.583451 418.965 0.467805 418.988 0.455961C421.925 -1.04048 427.217 1.62566 427.217 1.62566L626.722 110.752C626.722 110.752 632.813 113.504 633.182 120.911C633.579 128.864 633.572 292.672 633.572 292.672C633.572 292.672 634.275 299.219 630 302.219C629.845 302.328 629.685 302.433 629.515 302.533C624.938 305.22 620.458 304.42 620.458 304.42H620.457C622.271 304.644 624.244 304.51 625.936 303.516" fill="#DDDDFC"/>
<path fill-rule="evenodd" clip-rule="evenodd" d="M414.711 2.8171C414.746 2.7969 415.149 2.56352 415.566 2.32247C415.724 2.2319 415.882 2.14064 416.024 2.05913C416.284 1.91004 416.486 1.7944 416.51 1.78186C419.447 0.286113 423.639 2.6088 423.639 2.6088L623.143 111.735C623.143 111.735 629.235 114.487 629.603 121.893C630.001 129.847 629.993 293.655 629.993 293.655C629.993 293.655 630.697 300.202 626.422 303.201C626.266 303.31 626.105 303.416 625.936 303.516C624.244 304.51 622.271 304.644 620.458 304.42C617.365 304.038 614.735 302.614 614.735 302.614L418.07 192.742C418.07 192.742 413.037 190.95 412.809 184.469L412.733 8.2929C412.733 8.2929 412.442 4.14913 414.711 2.8171" fill="#F6F6FF"/>
<path fill-rule="evenodd" clip-rule="evenodd" d="M563.872 307.527L563.84 307.289C563.844 307.369 563.855 307.448 563.872 307.527" fill="#DDDDFC"/>
<path fill-rule="evenodd" clip-rule="evenodd" d="M563.838 307.276L563.84 307.29C563.84 307.285 563.84 307.281 563.84 307.276H563.838Z" fill="#DDDDFC"/>
<path fill-rule="evenodd" clip-rule="evenodd" d="M590.246 309.012L580.198 314.55C578.382 315.551 577.205 315.456 575.701 314.67L564.886 308.743C564.275 308.38 563.968 307.958 563.872 307.527L563.987 308.38C564.063 308.817 564.451 309.181 564.929 309.464L575.745 315.391C577.248 316.177 578.425 316.273 580.24 315.273L590.289 309.733C590.909 309.391 591.501 309.151 591.562 308.466L591.643 307.211H591.638C591.607 307.899 591.106 308.537 590.246 309.012" fill="#DDDDFC"/>
<path fill-rule="evenodd" clip-rule="evenodd" d="M544.036 296.521L544.004 296.284C544.008 296.362 544.019 296.442 544.036 296.521" fill="#DDDDFC"/>
<path fill-rule="evenodd" clip-rule="evenodd" d="M544.002 296.271L544.004 296.283V296.271H544.002Z" fill="#DDDDFC"/>
<path fill-rule="evenodd" clip-rule="evenodd" d="M570.409 298.006L560.362 303.545C558.547 304.546 557.369 304.449 555.865 303.664L545.05 297.736C544.439 297.376 544.133 296.952 544.036 296.521L544.152 297.375C544.228 297.812 544.614 298.175 545.093 298.458L555.91 304.386C557.412 305.171 558.589 305.267 560.404 304.266L570.454 298.727C571.072 298.385 571.666 298.145 571.725 297.46L571.807 296.204L571.802 296.205C571.771 296.893 571.27 297.532 570.409 298.006" fill="#DDDDFC"/>
<path fill-rule="evenodd" clip-rule="evenodd" d="M550.79 286.841L540.742 292.38C538.927 293.38 537.749 293.285 536.245 292.499L525.43 286.571C524.819 286.211 524.512 285.786 524.416 285.355L524.531 286.21C524.607 286.646 524.995 287.009 525.473 287.292L536.288 293.22C537.792 294.006 538.969 294.101 540.784 293.101L550.833 287.562C551.452 287.22 552.044 286.98 552.105 286.295L552.187 285.04H552.182C552.151 285.727 551.65 286.366 550.79 286.841" fill="#DDDDFC"/>
<path fill-rule="evenodd" clip-rule="evenodd" d="M505.277 273.785L505.245 273.547C505.249 273.627 505.26 273.706 505.277 273.785" fill="#DDDDFC"/>
<path fill-rule="evenodd" clip-rule="evenodd" d="M505.243 273.535L505.245 273.547V273.535H505.243Z" fill="#DDDDFC"/>
<path fill-rule="evenodd" clip-rule="evenodd" d="M531.651 275.269L521.603 280.809C519.787 281.809 518.61 281.714 517.107 280.928L506.291 275.001C505.68 274.638 505.373 274.215 505.277 273.785L505.392 274.638C505.468 275.076 505.856 275.439 506.334 275.721L517.15 281.649C518.653 282.435 519.83 282.531 521.646 281.53L531.694 275.991C532.313 275.649 532.906 275.409 532.967 274.724L533.048 273.468H533.042C533.012 274.157 532.511 274.796 531.651 275.269" fill="#DDDDFC"/>
<path fill-rule="evenodd" clip-rule="evenodd" d="M485.441 262.779L485.408 262.541C485.413 262.62 485.424 262.7 485.441 262.779" fill="#DDDDFC"/>
<path fill-rule="evenodd" clip-rule="evenodd" d="M485.407 262.528L485.409 262.542V262.528H485.407Z" fill="#DDDDFC"/>
<path fill-rule="evenodd" clip-rule="evenodd" d="M511.815 264.264L501.767 269.803C499.952 270.804 498.775 270.708 497.271 269.922L486.455 263.994C485.843 263.634 485.537 263.21 485.441 262.779L485.556 263.633C485.632 264.07 486.019 264.433 486.499 264.716L497.314 270.644C498.818 271.429 499.994 271.525 501.809 270.524L511.858 264.985C512.477 264.643 513.071 264.404 513.13 263.718L513.211 262.462L513.207 262.463C513.177 263.151 512.676 263.789 511.815 264.264" fill="#DDDDFC"/>
<path fill-rule="evenodd" clip-rule="evenodd" d="M492.194 253.098L482.146 258.638C480.332 259.639 479.154 259.543 477.65 258.757L466.834 252.829C466.224 252.469 465.916 252.044 465.821 251.612L465.936 252.468C466.012 252.905 466.4 253.267 466.878 253.55L477.693 259.477C479.197 260.264 480.374 260.36 482.189 259.359L492.238 253.819C492.858 253.479 493.449 253.237 493.51 252.553L493.591 251.297H493.586C493.556 251.985 493.055 252.623 492.194 253.098" fill="#DDDDFC"/>
<path fill-rule="evenodd" clip-rule="evenodd" d="M446.216 240.361L446.217 240.374C446.217 240.369 446.218 240.365 446.217 240.361H446.216Z" fill="#DDDDFC"/>
<path fill-rule="evenodd" clip-rule="evenodd" d="M472.623 242.096L462.575 247.634C460.76 248.636 459.583 248.539 458.078 247.754L447.263 241.827C446.653 241.465 446.346 241.041 446.25 240.611L446.365 241.465C446.439 241.902 446.828 242.264 447.307 242.548L458.122 248.475C459.625 249.261 460.803 249.357 462.618 248.356L472.666 242.817C473.286 242.475 473.877 242.235 473.938 241.55L474.021 240.294H474.016C473.985 240.983 473.483 241.621 472.623 242.096" fill="#DDDDFC"/>
<path fill-rule="evenodd" clip-rule="evenodd" d="M426.414 229.606L426.381 229.367C426.386 229.446 426.397 229.525 426.414 229.606" fill="#DDDDFC"/>
<path fill-rule="evenodd" clip-rule="evenodd" d="M426.38 229.354L426.381 229.368V229.354H426.38Z" fill="#DDDDFC"/>
<path fill-rule="evenodd" clip-rule="evenodd" d="M452.787 231.09L442.74 236.629C440.925 237.63 439.746 237.534 438.243 236.748L427.427 230.82C426.817 230.46 426.51 230.035 426.414 229.605L426.529 230.459C426.605 230.896 426.992 231.259 427.471 231.542L438.287 237.469C439.79 238.255 440.967 238.351 442.782 237.35L452.831 231.81C453.45 231.47 454.042 231.229 454.103 230.545L454.184 229.289L454.18 229.289C454.149 229.977 453.648 230.615 452.787 231.09" fill="#DDDDFC"/>
<path fill-rule="evenodd" clip-rule="evenodd" d="M433.168 219.924L423.119 225.464C421.305 226.465 420.127 226.369 418.622 225.583L407.806 219.655C407.196 219.295 406.89 218.87 406.794 218.439L406.909 219.295C406.984 219.73 407.373 220.093 407.85 220.376L418.666 226.304C420.168 227.09 421.347 227.185 423.162 226.185L433.209 220.645C433.829 220.304 434.422 220.064 434.482 219.379L434.563 218.123H434.56C434.529 218.811 434.028 219.45 433.168 219.924" fill="#DDDDFC"/>
<path fill-rule="evenodd" clip-rule="evenodd" d="M544.358 318.692L544.326 318.455C544.331 318.535 544.341 318.613 544.358 318.692" fill="#DDDDFC"/>
<path fill-rule="evenodd" clip-rule="evenodd" d="M544.325 318.442L544.326 318.455C544.326 318.45 544.327 318.446 544.326 318.442H544.325Z" fill="#DDDDFC"/>
<path fill-rule="evenodd" clip-rule="evenodd" d="M524.522 307.687L524.49 307.449C524.495 307.528 524.506 307.607 524.522 307.687" fill="#DDDDFC"/>
<path fill-rule="evenodd" clip-rule="evenodd" d="M524.488 307.436L524.49 307.449C524.491 307.445 524.49 307.44 524.49 307.436H524.488Z" fill="#DDDDFC"/>
<path fill-rule="evenodd" clip-rule="evenodd" d="M550.896 309.172L540.849 314.711C539.034 315.712 537.856 315.615 536.352 314.829L525.536 308.902C524.926 308.541 524.619 308.117 524.522 307.687L524.638 308.541C524.714 308.978 525.1 309.34 525.58 309.624L536.396 315.552C537.898 316.337 539.076 316.433 540.891 315.432L550.94 309.893C551.559 309.551 552.151 309.311 552.212 308.625L552.293 307.37L552.289 307.371C552.259 308.059 551.757 308.697 550.896 309.172" fill="#DDDDFC"/>
<path fill-rule="evenodd" clip-rule="evenodd" d="M531.276 298.006L521.228 303.545C519.413 304.546 518.235 304.45 516.732 303.664L505.915 297.736C505.305 297.376 504.999 296.951 504.902 296.521L505.017 297.376C505.092 297.812 505.48 298.175 505.959 298.457L516.774 304.385C518.278 305.172 519.457 305.267 521.271 304.266L531.319 298.727C531.938 298.386 532.532 298.145 532.592 297.461L532.673 296.205H532.668C532.637 296.893 532.136 297.532 531.276 298.006" fill="#DDDDFC"/>
<path fill-rule="evenodd" clip-rule="evenodd" d="M485.764 284.95L485.731 284.713C485.735 284.793 485.746 284.871 485.764 284.95" fill="#DDDDFC"/>
<path fill-rule="evenodd" clip-rule="evenodd" d="M485.73 284.7L485.731 284.713C485.731 284.708 485.732 284.704 485.731 284.7H485.73Z" fill="#DDDDFC"/>
<path fill-rule="evenodd" clip-rule="evenodd" d="M512.137 286.435L502.089 291.973C500.274 292.975 499.097 292.879 497.593 292.094L486.777 286.167C486.167 285.804 485.859 285.381 485.764 284.95L485.879 285.804C485.954 286.241 486.342 286.604 486.82 286.888L497.636 292.815C499.138 293.601 500.317 293.696 502.132 292.696L512.181 287.157C512.8 286.815 513.392 286.574 513.453 285.889L513.534 284.635H513.53C513.499 285.322 512.998 285.96 512.137 286.435" fill="#DDDDFC"/>
<path fill-rule="evenodd" clip-rule="evenodd" d="M465.927 273.945L465.895 273.707C465.9 273.786 465.911 273.866 465.927 273.945" fill="#DDDDFC"/>
<path fill-rule="evenodd" clip-rule="evenodd" d="M465.893 273.694L465.895 273.707C465.896 273.703 465.895 273.698 465.895 273.694H465.893Z" fill="#DDDDFC"/>
<path fill-rule="evenodd" clip-rule="evenodd" d="M492.301 275.429L482.253 280.969C480.439 281.97 479.261 281.873 477.758 281.088L466.941 275.16C466.331 274.799 466.024 274.375 465.927 273.945L466.043 274.798C466.119 275.236 466.505 275.599 466.985 275.881L477.801 281.809C479.303 282.594 480.481 282.691 482.296 281.69L492.345 276.15C492.964 275.809 493.556 275.569 493.616 274.884L493.698 273.628H493.693C493.663 274.317 493.162 274.955 492.301 275.429" fill="#DDDDFC"/>
<path fill-rule="evenodd" clip-rule="evenodd" d="M472.681 264.264L462.634 269.803C460.818 270.804 459.64 270.708 458.137 269.922L447.32 263.995C446.71 263.634 446.404 263.209 446.307 262.779L446.423 263.634C446.497 264.07 446.887 264.433 447.364 264.715L458.18 270.643C459.683 271.429 460.861 271.525 462.676 270.524L472.724 264.985C473.343 264.644 473.937 264.403 473.996 263.718L474.078 262.463H474.073C474.042 263.151 473.541 263.789 472.681 264.264" fill="#DDDDFC"/>
<path fill-rule="evenodd" clip-rule="evenodd" d="M426.736 251.776L426.704 251.539C426.709 251.618 426.719 251.698 426.736 251.776" fill="#DDDDFC"/>
<path fill-rule="evenodd" clip-rule="evenodd" d="M426.702 251.526L426.704 251.539C426.704 251.534 426.704 251.53 426.704 251.526H426.702Z" fill="#DDDDFC"/>
<path fill-rule="evenodd" clip-rule="evenodd" d="M453.109 253.261L443.062 258.799C441.247 259.801 440.069 259.704 438.566 258.92L427.749 252.992C427.139 252.63 426.832 252.207 426.736 251.776L426.851 252.63C426.927 253.067 427.315 253.43 427.792 253.713L438.609 259.641C440.111 260.427 441.29 260.522 443.104 259.521L453.153 253.983C453.772 253.641 454.364 253.4 454.426 252.715L454.507 251.46H454.502C454.472 252.148 453.97 252.787 453.109 253.261" fill="#DDDDFC"/>
<path fill-rule="evenodd" clip-rule="evenodd" d="M406.9 240.771L406.868 240.533C406.872 240.612 406.884 240.692 406.9 240.771" fill="#DDDDFC"/>
<path fill-rule="evenodd" clip-rule="evenodd" d="M406.866 240.52L406.868 240.534V240.52H406.866Z" fill="#DDDDFC"/>
<path fill-rule="evenodd" clip-rule="evenodd" d="M433.273 242.256L423.226 247.795C421.411 248.795 420.234 248.699 418.73 247.913L407.914 241.985C407.304 241.625 406.997 241.202 406.9 240.771L407.015 241.625C407.092 242.061 407.478 242.424 407.958 242.707L418.774 248.635C420.276 249.42 421.454 249.517 423.269 248.516L433.318 242.977C433.937 242.635 434.529 242.395 434.589 241.71L434.671 240.454L434.666 240.454C434.635 241.143 434.134 241.781 433.273 242.256" fill="#DDDDFC"/>
<path fill-rule="evenodd" clip-rule="evenodd" d="M523.275 329.858L523.243 329.62C523.246 329.7 523.258 329.778 523.275 329.858" fill="#DDDDFC"/>
<path fill-rule="evenodd" clip-rule="evenodd" d="M523.241 329.608L523.243 329.621C523.242 329.616 523.244 329.612 523.242 329.608H523.241Z" fill="#DDDDFC"/>
<path fill-rule="evenodd" clip-rule="evenodd" d="M503.439 318.852L503.407 318.615C503.411 318.694 503.423 318.773 503.439 318.852" fill="#DDDDFC"/>
<path fill-rule="evenodd" clip-rule="evenodd" d="M503.405 318.602L503.407 318.615V318.602H503.405Z" fill="#DDDDFC"/>
<path fill-rule="evenodd" clip-rule="evenodd" d="M529.813 320.337L519.765 325.876C517.95 326.877 516.772 326.781 515.269 325.995L504.452 320.067C503.842 319.707 503.535 319.283 503.439 318.852L503.554 319.706C503.63 320.143 504.017 320.506 504.497 320.789L515.313 326.717C516.815 327.502 517.992 327.598 519.808 326.597L529.856 321.058C530.475 320.716 531.068 320.476 531.129 319.791L531.21 318.535L531.205 318.536C531.174 319.224 530.673 319.863 529.813 320.337" fill="#DDDDFC"/>
<path fill-rule="evenodd" clip-rule="evenodd" d="M510.193 309.172L500.144 314.711C498.33 315.712 497.153 315.616 495.648 314.83L484.832 308.903C484.221 308.542 483.915 308.117 483.819 307.686L483.934 308.541C484.01 308.977 484.398 309.34 484.875 309.623L495.692 315.551C497.194 316.337 498.372 316.433 500.188 315.432L510.236 309.893C510.855 309.551 511.448 309.311 511.507 308.626L511.588 307.371H511.586C511.554 308.058 511.053 308.697 510.193 309.172" fill="#DDDDFC"/>
<path fill-rule="evenodd" clip-rule="evenodd" d="M464.68 296.116L464.648 295.878C464.651 295.958 464.663 296.036 464.68 296.116" fill="#DDDDFC"/>
<path fill-rule="evenodd" clip-rule="evenodd" d="M464.646 295.866L464.648 295.879C464.647 295.873 464.649 295.87 464.647 295.866H464.646Z" fill="#DDDDFC"/>
<path fill-rule="evenodd" clip-rule="evenodd" d="M491.053 297.6L481.006 303.14C479.19 304.141 478.013 304.045 476.509 303.259L465.693 297.332C465.084 296.969 464.776 296.546 464.68 296.116L464.795 296.969C464.87 297.406 465.258 297.77 465.738 298.053L476.552 303.98C478.055 304.766 479.234 304.862 481.049 303.861L491.096 298.322C491.716 297.98 492.309 297.74 492.37 297.055L492.451 295.8H492.446C492.415 296.488 491.913 297.127 491.053 297.6" fill="#DDDDFC"/>
<path fill-rule="evenodd" clip-rule="evenodd" d="M444.844 285.11L444.812 284.873C444.816 284.951 444.827 285.031 444.844 285.11" fill="#DDDDFC"/>
<path fill-rule="evenodd" clip-rule="evenodd" d="M444.81 284.86L444.812 284.873V284.86H444.81Z" fill="#DDDDFC"/>
<path fill-rule="evenodd" clip-rule="evenodd" d="M471.218 286.595L461.171 292.134C459.355 293.135 458.177 293.038 456.674 292.253L445.857 286.325C445.247 285.965 444.94 285.541 444.844 285.11L444.96 285.965C445.035 286.401 445.422 286.764 445.902 287.047L456.718 292.975C458.22 293.76 459.397 293.856 461.213 292.855L471.261 287.316C471.88 286.974 472.473 286.734 472.534 286.05L472.615 284.793L472.61 284.794C472.579 285.482 472.078 286.121 471.218 286.595" fill="#DDDDFC"/>
<path fill-rule="evenodd" clip-rule="evenodd" d="M451.598 275.429L441.549 280.969C439.735 281.97 438.557 281.873 437.053 281.088L426.237 275.16C425.627 274.799 425.319 274.374 425.224 273.944L425.339 274.799C425.414 275.235 425.802 275.599 426.28 275.881L437.096 281.809C438.599 282.595 439.777 282.691 441.593 281.69L451.64 276.15C452.26 275.809 452.853 275.569 452.913 274.884L452.993 273.628H452.99C452.959 274.316 452.458 274.955 451.598 275.429" fill="#DDDDFC"/>
<path fill-rule="evenodd" clip-rule="evenodd" d="M405.653 262.942L405.62 262.704C405.624 262.785 405.636 262.863 405.653 262.942" fill="#DDDDFC"/>
<path fill-rule="evenodd" clip-rule="evenodd" d="M405.619 262.691L405.62 262.704C405.62 262.7 405.621 262.696 405.62 262.691H405.619Z" fill="#DDDDFC"/>
<path fill-rule="evenodd" clip-rule="evenodd" d="M432.026 264.427L421.978 269.966C420.163 270.967 418.986 270.871 417.482 270.086L406.666 264.158C406.057 263.795 405.748 263.372 405.653 262.942L405.768 263.795C405.843 264.233 406.231 264.596 406.709 264.879L417.525 270.807C419.028 271.592 420.207 271.688 422.021 270.687L432.069 265.148C432.689 264.806 433.281 264.566 433.342 263.881L433.423 262.626H433.419C433.388 263.314 432.886 263.952 432.026 264.427" fill="#DDDDFC"/>
<path fill-rule="evenodd" clip-rule="evenodd" d="M385.817 251.937L385.785 251.699C385.789 251.777 385.8 251.857 385.817 251.937" fill="#DDDDFC"/>
<path fill-rule="evenodd" clip-rule="evenodd" d="M385.783 251.685L385.785 251.699V251.685H385.783Z" fill="#DDDDFC"/>
<path fill-rule="evenodd" clip-rule="evenodd" d="M412.19 253.421L402.143 258.96C400.328 259.961 399.15 259.865 397.647 259.079L386.83 253.151C386.22 252.791 385.912 252.367 385.817 251.937L385.932 252.79C386.007 253.227 386.395 253.59 386.874 253.872L397.689 259.801C399.192 260.586 400.37 260.682 402.186 259.681L412.234 254.142C412.853 253.8 413.446 253.561 413.505 252.876L413.586 251.62L413.583 251.621C413.552 252.308 413.05 252.946 412.19 253.421" fill="#DDDDFC"/>
<path fill-rule="evenodd" clip-rule="evenodd" d="M413.653 231.267L403.607 236.806C401.791 237.807 400.614 237.71 399.11 236.925L388.294 230.997C387.684 230.636 387.377 230.213 387.28 229.782L387.395 230.636C387.472 231.073 387.858 231.436 388.338 231.718L399.154 237.647C400.656 238.432 401.833 238.528 403.649 237.527L413.698 231.988C414.317 231.646 414.91 231.406 414.969 230.721L415.051 229.465L415.046 229.466C415.015 230.154 414.514 230.793 413.653 231.267" fill="#DDDDFC"/>
<path fill-rule="evenodd" clip-rule="evenodd" d="M392.57 242.433L382.523 247.972C380.708 248.972 379.53 248.876 378.027 248.09L367.211 242.162C366.6 241.802 366.292 241.378 366.197 240.948L366.312 241.802C366.387 242.238 366.775 242.601 367.255 242.885L378.07 248.812C379.573 249.597 380.75 249.694 382.566 248.693L392.614 243.153C393.234 242.812 393.826 242.572 393.885 241.886L393.966 240.631L393.963 240.632C393.932 241.319 393.431 241.958 392.57 242.433" fill="#DDDDFC"/>
<path fill-rule="evenodd" clip-rule="evenodd" d="M570.481 320.256L539.349 336.895C537.534 337.896 536.357 337.8 534.854 337.014L524.038 331.087C523.426 330.726 523.121 330.301 523.024 329.87L523.139 330.726C523.214 331.162 523.604 331.525 524.081 331.808L534.898 337.736C536.4 338.521 537.578 338.617 539.394 337.616L570.524 320.977C571.143 320.636 571.737 320.395 571.797 319.711L571.879 318.455H571.873C571.842 319.143 571.341 319.782 570.481 320.256" fill="#DDDDFC"/>
<path fill-rule="evenodd" clip-rule="evenodd" d="M503.762 341.023L503.729 340.786C503.733 340.866 503.744 340.944 503.762 341.023" fill="#DDDDFC"/>
<path fill-rule="evenodd" clip-rule="evenodd" d="M503.728 340.773L503.729 340.786C503.729 340.781 503.73 340.777 503.729 340.773H503.728Z" fill="#DDDDFC"/>
<path fill-rule="evenodd" clip-rule="evenodd" d="M530.135 342.508L520.087 348.047C518.272 349.048 517.095 348.952 515.592 348.167L504.775 342.24C504.165 341.877 503.857 341.454 503.762 341.023L503.876 341.877C503.952 342.314 504.34 342.677 504.817 342.961L515.634 348.887C517.137 349.673 518.315 349.769 520.13 348.769L530.178 343.23C530.798 342.888 531.39 342.647 531.451 341.963L531.532 340.708H531.528C531.496 341.395 530.995 342.034 530.135 342.508" fill="#DDDDFC"/>
<path fill-rule="evenodd" clip-rule="evenodd" d="M483.926 330.018L483.893 329.781C483.897 329.859 483.909 329.938 483.926 330.018" fill="#DDDDFC"/>
<path fill-rule="evenodd" clip-rule="evenodd" d="M483.892 329.767L483.893 329.78C483.895 329.776 483.893 329.771 483.893 329.767H483.892Z" fill="#DDDDFC"/>
<path fill-rule="evenodd" clip-rule="evenodd" d="M510.298 331.503L500.251 337.042C498.436 338.042 497.26 337.946 495.755 337.16L484.939 331.233C484.33 330.872 484.022 330.449 483.926 330.018L484.04 330.872C484.117 331.308 484.504 331.671 484.983 331.955L495.799 337.882C497.302 338.668 498.478 338.764 500.294 337.763L510.343 332.224C510.962 331.882 511.555 331.642 511.615 330.957L511.696 329.701L511.692 329.702C511.661 330.39 511.16 331.028 510.298 331.503" fill="#DDDDFC"/>
<path fill-rule="evenodd" clip-rule="evenodd" d="M490.679 320.337L480.631 325.876C478.816 326.877 477.638 326.781 476.135 325.995L465.318 320.068C464.708 319.707 464.401 319.282 464.305 318.852L464.42 319.707C464.496 320.143 464.884 320.506 465.362 320.789L476.178 326.716C477.68 327.503 478.858 327.598 480.674 326.597L490.722 321.058C491.341 320.717 491.934 320.476 491.995 319.792L492.076 318.536H492.071C492.041 319.224 491.54 319.863 490.679 320.337" fill="#DDDDFC"/>
<path fill-rule="evenodd" clip-rule="evenodd" d="M445.166 307.281L445.134 307.044C445.138 307.124 445.149 307.202 445.166 307.281" fill="#DDDDFC"/>
<path fill-rule="evenodd" clip-rule="evenodd" d="M445.133 307.031L445.134 307.044C445.134 307.04 445.135 307.035 445.134 307.031H445.133Z" fill="#DDDDFC"/>
<path fill-rule="evenodd" clip-rule="evenodd" d="M471.54 308.766L461.492 314.305C459.677 315.306 458.5 315.21 456.996 314.425L446.18 308.498C445.57 308.135 445.262 307.712 445.166 307.281L445.282 308.135C445.357 308.572 445.745 308.935 446.224 309.219L457.039 315.145C458.542 315.931 459.72 316.027 461.535 315.027L471.583 309.488C472.202 309.146 472.795 308.905 472.856 308.221L472.938 306.966H472.933C472.901 307.653 472.4 308.292 471.54 308.766" fill="#DDDDFC"/>
<path fill-rule="evenodd" clip-rule="evenodd" d="M425.331 296.276L425.298 296.038C425.302 296.117 425.314 296.196 425.331 296.276" fill="#DDDDFC"/>
<path fill-rule="evenodd" clip-rule="evenodd" d="M425.297 296.025L425.298 296.038V296.025H425.297Z" fill="#DDDDFC"/>
<path fill-rule="evenodd" clip-rule="evenodd" d="M451.703 297.761L441.656 303.3C439.841 304.3 438.664 304.204 437.16 303.418L426.344 297.491C425.735 297.13 425.427 296.707 425.331 296.276L425.445 297.13C425.521 297.566 425.909 297.929 426.387 298.213L437.204 304.141C438.706 304.926 439.883 305.022 441.699 304.021L451.747 298.482C452.366 298.14 452.959 297.9 453.02 297.214L453.101 295.959L453.097 295.96C453.065 296.648 452.564 297.286 451.703 297.761" fill="#DDDDFC"/>
<path fill-rule="evenodd" clip-rule="evenodd" d="M432.084 286.595L422.036 292.134C420.221 293.135 419.043 293.039 417.54 292.253L406.724 286.326C406.113 285.965 405.806 285.54 405.71 285.11L405.826 285.965C405.901 286.401 406.289 286.764 406.767 287.046L417.583 292.974C419.086 293.761 420.264 293.856 422.079 292.855L432.127 287.316C432.746 286.975 433.339 286.734 433.4 286.05L433.481 284.794H433.476C433.445 285.482 432.944 286.121 432.084 286.595" fill="#DDDDFC"/>
<path fill-rule="evenodd" clip-rule="evenodd" d="M386.14 274.107L386.107 273.87C386.111 273.95 386.121 274.028 386.14 274.107" fill="#DDDDFC"/>
<path fill-rule="evenodd" clip-rule="evenodd" d="M386.105 273.857L386.107 273.87C386.106 273.866 386.107 273.861 386.106 273.857H386.105Z" fill="#DDDDFC"/>
<path fill-rule="evenodd" clip-rule="evenodd" d="M412.513 275.592L402.465 281.131C400.649 282.132 399.473 282.036 397.968 281.251L387.153 275.324C386.543 274.961 386.235 274.538 386.14 274.107L386.253 274.961C386.33 275.398 386.718 275.761 387.195 276.045L398.012 281.971C399.515 282.757 400.692 282.853 402.508 281.853L412.555 276.314C413.175 275.972 413.768 275.731 413.829 275.047L413.91 273.792H413.905C413.874 274.479 413.373 275.118 412.513 275.592" fill="#DDDDFC"/>
<path fill-rule="evenodd" clip-rule="evenodd" d="M366.303 263.102L366.271 262.864C366.275 262.943 366.286 263.022 366.303 263.102" fill="#DDDDFC"/>
<path fill-rule="evenodd" clip-rule="evenodd" d="M366.268 262.852L366.271 262.865V262.852H366.268Z" fill="#DDDDFC"/>
<path fill-rule="evenodd" clip-rule="evenodd" d="M392.676 264.587L382.628 270.126C380.813 271.127 379.637 271.03 378.133 270.245L367.317 264.317C366.706 263.956 366.4 263.532 366.303 263.102L366.418 263.956C366.495 264.393 366.882 264.756 367.361 265.038L378.177 270.966C379.679 271.752 380.856 271.848 382.671 270.847L392.719 265.307C393.339 264.966 393.933 264.726 393.993 264.04L394.074 262.785H394.07C394.038 263.474 393.537 264.112 392.676 264.587" fill="#DDDDFC"/>
<path fill-rule="evenodd" clip-rule="evenodd" d="M373.056 253.421L363.008 258.96C361.193 259.961 360.016 259.865 358.511 259.079L347.696 253.152C347.085 252.792 346.779 252.366 346.683 251.936L346.798 252.791C346.874 253.226 347.262 253.59 347.74 253.872L358.555 259.8C360.058 260.587 361.236 260.682 363.052 259.681L373.1 254.142C373.719 253.801 374.312 253.56 374.371 252.876L374.453 251.621H374.448C374.418 252.308 373.917 252.946 373.056 253.421" fill="#DDDDFC"/>
<path fill-rule="evenodd" clip-rule="evenodd" d="M482.685 352.188L482.654 351.951C482.658 352.031 482.668 352.109 482.685 352.188" fill="#DDDDFC"/>
<path fill-rule="evenodd" clip-rule="evenodd" d="M482.652 351.938L482.654 351.951V351.938H482.652Z" fill="#DDDDFC"/>
<path fill-rule="evenodd" clip-rule="evenodd" d="M509.059 353.673L499.011 359.212C497.196 360.213 496.019 360.117 494.516 359.332L483.699 353.405C483.089 353.042 482.782 352.619 482.685 352.189L482.801 353.042C482.877 353.479 483.265 353.842 483.742 354.126L494.559 360.053C496.061 360.838 497.239 360.934 499.053 359.934L509.102 354.395C509.722 354.053 510.314 353.812 510.375 353.128L510.457 351.873H510.452C510.42 352.561 509.92 353.199 509.059 353.673" fill="#DDDDFC"/>
<path fill-rule="evenodd" clip-rule="evenodd" d="M462.85 341.183L462.817 340.945C462.822 341.024 462.833 341.103 462.85 341.183" fill="#DDDDFC"/>
<path fill-rule="evenodd" clip-rule="evenodd" d="M462.816 340.932L462.817 340.945C462.818 340.941 462.817 340.937 462.817 340.932H462.816Z" fill="#DDDDFC"/>
<path fill-rule="evenodd" clip-rule="evenodd" d="M489.223 342.668L479.175 348.207C477.361 349.207 476.184 349.111 474.679 348.325L463.864 342.398C463.254 342.037 462.946 341.614 462.85 341.183L462.965 342.037C463.041 342.473 463.428 342.836 463.907 343.12L474.723 349.047C476.226 349.832 477.403 349.929 479.217 348.928L489.267 343.389C489.886 343.047 490.479 342.807 490.538 342.122L490.62 340.866L490.616 340.867C490.585 341.555 490.084 342.193 489.223 342.668" fill="#DDDDFC"/>
<path fill-rule="evenodd" clip-rule="evenodd" d="M469.602 331.502L459.555 337.041C457.741 338.042 456.562 337.946 455.059 337.16L366.077 286.53C365.466 286.169 365.159 285.744 365.063 285.314L365.178 286.169C365.254 286.605 365.642 286.968 366.12 287.251L455.103 337.881C456.605 338.668 457.783 338.763 459.598 337.763L469.647 332.223C470.265 331.882 470.858 331.641 470.919 330.957L471 329.701H470.994C470.965 330.389 470.463 331.028 469.602 331.502" fill="#DDDDFC"/>
<path fill-rule="evenodd" clip-rule="evenodd" d="M424.091 318.446L424.058 318.209C424.063 318.289 424.074 318.368 424.091 318.446" fill="#DDDDFC"/>
<path fill-rule="evenodd" clip-rule="evenodd" d="M424.057 318.196L424.058 318.209C424.058 318.205 424.059 318.2 424.058 318.196H424.057Z" fill="#DDDDFC"/>
<path fill-rule="evenodd" clip-rule="evenodd" d="M404.255 307.441L404.222 307.204C404.227 307.282 404.238 307.362 404.255 307.441" fill="#DDDDFC"/>
<path fill-rule="evenodd" clip-rule="evenodd" d="M404.221 307.19L404.222 307.203V307.19H404.221Z" fill="#DDDDFC"/>
<path fill-rule="evenodd" clip-rule="evenodd" d="M365.063 285.272L365.032 285.035C365.035 285.115 365.046 285.193 365.063 285.272" fill="#DDDDFC"/>
<path fill-rule="evenodd" clip-rule="evenodd" d="M365.029 285.022L365.032 285.035C365.03 285.031 365.032 285.026 365.03 285.022H365.029Z" fill="#DDDDFC"/>
<path fill-rule="evenodd" clip-rule="evenodd" d="M345.228 274.267L345.195 274.029C345.199 274.108 345.21 274.187 345.228 274.267" fill="#DDDDFC"/>
<path fill-rule="evenodd" clip-rule="evenodd" d="M345.194 274.016L345.195 274.029V274.016H345.194Z" fill="#DDDDFC"/>
<path fill-rule="evenodd" clip-rule="evenodd" d="M371.6 275.752L361.553 281.291C359.738 282.292 358.56 282.195 357.057 281.409L346.241 275.482C345.631 275.121 345.324 274.698 345.228 274.267L345.342 275.12C345.419 275.558 345.806 275.92 346.284 276.204L357.101 282.132C358.604 282.917 359.78 283.013 361.595 282.013L371.644 276.473C372.264 276.131 372.857 275.892 372.916 275.205L372.998 273.951H372.994C372.963 274.639 372.461 275.277 371.6 275.752" fill="#DDDDFC"/>
<path fill-rule="evenodd" clip-rule="evenodd" d="M351.981 264.586L341.933 270.126C340.118 271.126 338.94 271.03 337.437 270.245L326.621 264.317C326.01 263.956 325.703 263.531 325.607 263.1L325.722 263.956C325.798 264.391 326.186 264.755 326.664 265.038L337.48 270.966C338.983 271.752 340.16 271.847 341.976 270.847L352.024 265.307C352.643 264.966 353.236 264.725 353.296 264.04L353.377 262.785H353.373C353.342 263.473 352.842 264.111 351.981 264.586" fill="#DDDDFC"/>
<path fill-rule="evenodd" clip-rule="evenodd" d="M415.805 13.3283L415.877 180.378C416.094 186.523 420.865 188.222 420.865 188.222L612.455 295.841C612.455 295.841 614.949 297.191 617.881 297.553C619.6 297.766 621.47 297.638 623.075 296.696C623.236 296.601 623.392 296.506 623.536 296.398C626.964 293.831 626.923 287.345 626.923 287.345V124.482C626.573 117.461 620.428 114.851 620.428 114.851L422.85 6.14362C422.85 6.14362 419.039 4.08149 417.374 5.897C415.603 7.82746 415.805 9.00483 415.805 13.3283" fill="#C86DD7"/>
<path fill-rule="evenodd" clip-rule="evenodd" d="M595.894 334.398L602.768 330.462C603.834 329.853 604.462 328.386 603.871 327.346C604.542 327.428 605.169 327.79 605.543 328.392C606.189 329.435 605.554 330.944 604.469 331.565L597.597 335.501C596.962 335.864 596.22 335.89 595.584 335.647C595.131 335.475 594.729 335.172 594.46 334.738C594.448 334.72 594.44 334.7 594.429 334.68C594.92 334.745 595.436 334.662 595.894 334.398" fill="#B6B6DD"/>
<path fill-rule="evenodd" clip-rule="evenodd" d="M595.533 331.565L602.406 327.63C602.778 327.417 603.189 327.324 603.593 327.327C603.686 327.327 603.778 327.334 603.87 327.346C604.462 328.386 603.833 329.853 602.768 330.462L595.894 334.399C595.435 334.661 594.92 334.745 594.429 334.681C593.839 333.641 594.468 332.175 595.533 331.565" fill="#C7C7EA"/>
<path fill-rule="evenodd" clip-rule="evenodd" d="M468.46 47.2254V206.332L572.765 263.764V104.656L468.46 47.2254Z" fill="white"/>
<path fill-rule="evenodd" clip-rule="evenodd" d="M468.46 58.946L572.765 116.376V174.102L468.46 116.67V58.946Z" fill="#DDDDFC"/>
<path fill-rule="evenodd" clip-rule="evenodd" d="M481.017 156.166V171.49L501.713 182.825V167.711L481.017 156.166Z" fill="#DDDDFC"/>
<path fill-rule="evenodd" clip-rule="evenodd" d="M493.326 139.636V144.148L546.668 173.799V169.495L493.326 139.636Z" fill="#DDDDFC"/>
<path fill-rule="evenodd" clip-rule="evenodd" d="M502.34 152.414V156.166L537.848 175.67V172.127L502.34 152.414Z" fill="#DDDDFC"/>
<path fill-rule="evenodd" clip-rule="evenodd" d="M481.017 173.799V175.792L501.713 187.128V185.344L481.017 173.799Z" fill="#DDDDFC"/>
<path fill-rule="evenodd" clip-rule="evenodd" d="M481.017 178.546V180.54L497.479 189.653V187.869L481.017 178.546Z" fill="#DDDDFC"/>
<path fill-rule="evenodd" clip-rule="evenodd" d="M509.027 171.669V186.992L529.723 198.328V183.214L509.027 171.669Z" fill="#DDDDFC"/>
<path fill-rule="evenodd" clip-rule="evenodd" d="M509.027 189.301V191.296L529.723 202.631V200.847L509.027 189.301Z" fill="#DDDDFC"/>
<path fill-rule="evenodd" clip-rule="evenodd" d="M509.027 193.698V195.691L525.491 204.805V203.02L509.027 193.698Z" fill="#DDDDFC"/>
<path fill-rule="evenodd" clip-rule="evenodd" d="M536.942 187.171V202.495L557.638 213.831V198.716L536.942 187.171Z" fill="#DDDDFC"/>
<path fill-rule="evenodd" clip-rule="evenodd" d="M536.996 225.987V233.253L555.252 243.249V236.194L536.996 225.987Z" fill="#DDDDFC"/>
<path fill-rule="evenodd" clip-rule="evenodd" d="M536.942 204.805V206.798L557.638 218.134V216.35L536.942 204.805Z" fill="#DDDDFC"/>
<path fill-rule="evenodd" clip-rule="evenodd" d="M536.996 209.17V211.164L553.459 220.277V218.493L536.996 209.17Z" fill="#DDDDFC"/>
<path fill-rule="evenodd" clip-rule="evenodd" d="M536.996 225.987L538.308 225.347L556.341 235.552L555.252 236.194L536.996 225.987Z" fill="#E4E4F4"/>
<path fill-rule="evenodd" clip-rule="evenodd" d="M555.252 236.194L556.341 235.552V242.607L555.252 243.249V236.194Z" fill="#CECEEF"/>
<path fill-rule="evenodd" clip-rule="evenodd" d="M474.63 55.5213C475.479 54.8459 476.801 55.0385 477.582 55.9504C478.364 56.8624 478.31 58.1498 477.462 58.8252C476.612 59.5006 475.291 59.3087 474.509 58.3968C473.727 57.4841 473.781 56.1975 474.63 55.5213" fill="#E8F0F4"/>
<path fill-rule="evenodd" clip-rule="evenodd" d="M244.615 221.113C244.615 221.113 134.217 282.74 130.594 284.76C124.265 288.29 118.583 284.209 118.583 284.209L46.6164 244.222C46.6164 244.222 44.5386 243.309 44.4943 240.978C44.4922 240.966 44.4893 240.956 44.4893 240.945V244.834C44.4893 246.521 47.0505 247.937 47.0505 247.937L119.19 288.722C119.19 288.722 124.689 292.336 131.008 288.733C134.611 286.679 244.615 224.477 244.615 224.477C244.615 224.477 247.963 222.926 247.963 220.167V217.71C247.724 219.724 244.615 221.113 244.615 221.113" fill="#DDDDFC"/>
<path fill-rule="evenodd" clip-rule="evenodd" d="M243.479 212.886L175.273 174.243C175.273 174.243 169.347 170.054 162.549 173.881L46.729 237.675C46.729 237.675 44.4893 238.717 44.4893 240.904C44.4893 240.93 44.4922 240.953 44.4944 240.978C44.5387 243.309 46.6164 244.222 46.6164 244.222L118.583 284.209C118.583 284.209 124.265 288.29 130.594 284.76C134.217 282.739 244.615 221.113 244.615 221.113C244.615 221.113 247.724 219.724 247.963 217.71C248.238 215.407 243.479 212.886 243.479 212.886" fill="#F6F6FF"/>
<path fill-rule="evenodd" clip-rule="evenodd" d="M237.109 217.96L139.117 272.511L68.8641 233.444L166.254 178.384L237.109 217.96Z" fill="#C86DD7"/>
<path fill-rule="evenodd" clip-rule="evenodd" d="M87.0671 257.736C87.0671 256.07 89.383 254.72 92.2397 254.72C95.095 254.72 97.4123 256.07 97.4123 257.736C97.4123 259.402 95.095 260.753 92.2397 260.753C89.383 260.753 87.0671 259.402 87.0671 257.736M86.6591 257.736C86.6591 259.533 89.1572 260.991 92.2397 260.991C95.3208 260.991 97.8189 259.533 97.8189 257.736C97.8189 255.939 95.3208 254.482 92.2397 254.482C89.1572 254.482 86.6591 255.939 86.6591 257.736" fill="#D8D8D8"/>
<path fill-rule="evenodd" clip-rule="evenodd" d="M274.177 107.275L274.237 108.441C274.705 116.176 278.573 159.806 306.586 167.432C329.045 173.05 335.401 164.925 336.122 163.863L339.459 98.1285H273.714L274.177 107.261V107.275Z" fill="white"/>
<path fill-rule="evenodd" clip-rule="evenodd" d="M306.586 167.432C278.573 159.806 274.705 116.177 274.236 108.441L277.277 168.322C277.277 177.417 290.398 184.792 306.586 184.792C322.773 184.792 335.896 177.417 335.896 168.322L336.122 163.863C335.402 164.925 329.044 173.05 306.586 167.432" fill="#F6F6FF"/>
<path fill-rule="evenodd" clip-rule="evenodd" d="M306.586 178.86C291.123 178.86 278.419 172.229 276.978 163.751C276.888 164.281 276.838 164.816 276.838 165.359C276.838 174.592 290.157 182.078 306.586 182.078C323.016 182.078 336.335 174.592 336.335 165.359C336.335 164.816 336.285 164.281 336.195 163.751C334.755 172.229 322.051 178.86 306.586 178.86" fill="#F0F0FC"/>
<path fill-rule="evenodd" clip-rule="evenodd" d="M338.763 96.0084C338.763 105.995 324.357 114.091 306.586 114.091C288.815 114.091 274.408 105.995 274.408 96.0084C274.408 86.0215 288.815 77.9268 306.586 77.9268C324.357 77.9268 338.763 86.0215 338.763 96.0084" fill="white"/>
<path fill-rule="evenodd" clip-rule="evenodd" d="M306.586 119.224C289.56 119.224 275.572 111.923 273.986 102.587C273.886 103.171 273.831 103.761 273.831 104.358C273.831 114.524 288.496 122.767 306.586 122.767C324.675 122.767 339.342 114.524 339.342 104.358C339.342 103.761 339.286 103.171 339.187 102.587C337.601 111.923 323.613 119.224 306.586 119.224" fill="#F0F0FC"/>
<path fill-rule="evenodd" clip-rule="evenodd" d="M306.586 103.783C289.867 103.783 276.133 96.6132 274.576 87.4467C274.478 88.0196 274.425 88.5994 274.425 89.187C274.425 99.1683 288.823 107.262 306.586 107.262C324.349 107.262 338.749 99.1683 338.749 89.187C338.749 88.5994 338.694 88.0196 338.598 87.4467C337.039 96.6132 323.303 103.783 306.586 103.783" fill="#FCFCFC"/>
<path fill-rule="evenodd" clip-rule="evenodd" d="M307.237 113.725C319.718 114.851 327.338 113.094 331.975 110.725C335.024 108.786 337.378 106.497 338.825 103.977C338.974 103.594 339.024 103.367 339.024 103.367C339.024 103.367 339.06 103.387 339.126 103.418C339.989 101.739 340.461 99.9652 340.461 98.1285C340.461 87.6145 325.295 79.0919 306.586 79.0919C291.577 79.0919 278.855 84.5801 274.408 92.178C274.392 92.7072 274.083 111.145 307.237 113.725" fill="white"/>
<path fill-rule="evenodd" clip-rule="evenodd" d="M306.586 117.166C316.698 117.166 325.769 114.673 331.976 110.725C327.338 113.093 319.718 114.851 307.237 113.725C274.083 111.145 274.393 92.7077 274.408 92.1778C273.311 94.0504 272.711 96.0503 272.711 98.129C272.711 108.642 287.878 117.166 306.586 117.166" fill="#F6F6FF"/>
<path fill-rule="evenodd" clip-rule="evenodd" d="M338.594 89.4552C338.594 99.3894 324.264 107.443 306.586 107.443C288.908 107.443 274.577 99.3894 274.577 89.4552C274.577 79.5203 288.908 71.4671 306.586 71.4671C324.264 71.4671 338.594 79.5203 338.594 89.4552" fill="white"/>
<path fill-rule="evenodd" clip-rule="evenodd" d="M306.586 71.6767C289.056 71.6767 274.794 79.6518 274.794 89.4551C274.794 99.2584 289.056 107.233 306.586 107.233C324.117 107.233 338.378 99.2584 338.378 89.4551C338.378 79.6518 324.117 71.6767 306.586 71.6767M306.586 107.651C288.817 107.651 274.361 99.4892 274.361 89.4551C274.361 79.421 288.817 71.258 306.586 71.258C324.355 71.258 338.811 79.421 338.811 89.4551C338.811 99.4892 324.355 107.651 306.586 107.651" fill="#F7F7F7"/>
<path fill-rule="evenodd" clip-rule="evenodd" d="M304.417 100.151H311.555C311.734 100.151 311.905 100.188 312.059 100.254C312.059 100.24 312.062 100.226 312.062 100.212C312.062 99.5401 311.5 98.9947 310.807 98.9947H303.668C302.974 98.9947 302.412 99.5401 302.412 100.212C302.412 100.712 302.722 101.139 303.164 101.328C303.187 100.675 303.737 100.151 304.417 100.151" fill="#DADEE0"/>
<path fill-rule="evenodd" clip-rule="evenodd" d="M310.806 101.431C311.486 101.431 312.036 100.907 312.059 100.255C311.905 100.188 311.734 100.151 311.555 100.151H304.417C303.738 100.151 303.187 100.675 303.165 101.328C303.319 101.393 303.489 101.431 303.667 101.431H310.806Z" fill="#E8E8E8"/>
<defs>
<linearGradient id="paint0_linear" x1="669.208" y1="731.078" x2="669.208" y2="196.962" gradientUnits="userSpaceOnUse">
<stop stop-color="white"/>
<stop offset="1" stop-color="#DDDDFF"/>
</linearGradient>
</defs>
</svg>
