<svg width="0" height="0" class="hidden">
  <symbol fill="none" xmlns="http://www.w3.org/2000/svg" viewBox="0 0 48 48" id="voluptatem">
    <path fill-rule="evenodd" clip-rule="evenodd" d="M48 28.772V8H8v40h20.378C34.704 48 48 33.554 48 28.772zM12 44V12h32v15.086C44 35.3 32 32 32 32s3.036 12-5.276 12H12zm6-12h10v-2H18v2zm20-8H18v2h20v-2zm-20-6h20v2H18v-2z" fill="#C86DD7"></path>
    <path d="M42 4H4v38H0V0h42v4z" fill="#FFC300"></path>
  </symbol>
  <symbol fill="none" xmlns="http://www.w3.org/2000/svg" viewBox="0 0 32 32" id="twiter">
    <path fill-rule="evenodd" clip-rule="evenodd" d="M16 0C7.164 0 0 7.164 0 16s7.164 16 16 16 16-7.164 16-16S24.836 0 16 0zm0 2.667c7.352 0 13.333 5.981 13.333 13.333S23.352 29.333 16 29.333 2.667 23.352 2.667 16 8.648 2.667 16 2.667zm6.781 9.554a6.572 6.572 0 001.886-.517 6.618 6.618 0 01-1.639 1.699c.208 4.617-3.235 9.765-9.33 9.765a9.284 9.284 0 01-5.031-1.475 6.606 6.606 0 004.862-1.361 3.287 3.287 0 01-3.066-2.279c.514.099 1.021.07 1.482-.056-1.578-.317-2.669-1.74-2.633-3.26.443.246.948.394 1.485.411a3.287 3.287 0 01-1.016-4.383 9.324 9.324 0 006.766 3.43A3.286 3.286 0 0122.14 11.2a6.566 6.566 0 002.085-.796 3.296 3.296 0 01-1.444 1.816z" fill="#fff"></path>
  </symbol>
  <symbol fill="none" xmlns="http://www.w3.org/2000/svg" viewBox="0 0 44 48" id="quisiquam">
    <path fill-rule="evenodd" clip-rule="evenodd" d="M32 22h12v26H32V22zm8 4v18h-4V26h4zm-24 4h12v18H16V30zm8 4v10h-4V34h4zM0 36h12v12H0V36zm8 8v-4H4v4h4z" fill="#C86DD7"></path>
    <path d="M44 0L32 2.442l3.432 3.416-13.7 13.466-6.002-6.004L.048 28.914l2.82 2.836 12.854-12.78 5.982 5.986 16.56-16.274 3.334 3.32L44 0z" fill="#FFC300"></path>
  </symbol>
  <symbol fill="none" xmlns="http://www.w3.org/2000/svg" viewBox="0 0 32 32" id="instagram">
    <path fill-rule="evenodd" clip-rule="evenodd" d="M16 0C7.164 0 0 7.164 0 16s7.164 16 16 16 16-7.164 16-16S24.836 0 16 0zm0 2.667c7.352 0 13.333 5.981 13.333 13.333S23.352 29.333 16 29.333 2.667 23.352 2.667 16 8.648 2.667 16 2.667zm3.128 13.405a3.141 3.141 0 01-3.139 3.139 3.144 3.144 0 01-3.138-3.139c0-.94.417-1.783 1.073-2.359a3.108 3.108 0 012.065-.779 3.117 3.117 0 012.068.78 3.137 3.137 0 011.071 2.358zM16 13.753a2.317 2.317 0 012.317 2.319 2.318 2.318 0 11-4.634 0A2.317 2.317 0 0116 13.753zM24 14h-4.519c.363.61.582 1.313.582 2.072a4.074 4.074 0 01-8.147 0c0-.759.22-1.463.581-2.072H8v6.852C8 22.591 9.45 24 11.19 24h9.662A3.149 3.149 0 0024 20.852V14zm-3.148-6h-8.185v3.333H12V8h-.667v3.333h-.666V8.052a3.17 3.17 0 00-.667.179v3.102h-.667V8.6A3.128 3.128 0 008 11.148v2.185h4.981a4.056 4.056 0 016.015 0H24v-2.186A3.149 3.149 0 0020.852 8zm1.317 4c.276 0 .498-.22.498-.49V9.822c0-.27-.222-.49-.498-.49h-1.673a.494.494 0 00-.496.49v1.686c0 .271.223.491.496.491h1.673z" fill="#fff"></path>
  </symbol>
  <symbol fill="none" xmlns="http://www.w3.org/2000/svg" viewBox="0 0 705 791" id="illustration">
    <path opacity=".14" fill-rule="evenodd" clip-rule="evenodd" d="M1.075 278.096C.279 280.776.007 305.791 0 338.561v2.59C.014 408.61 1.097 635.45 1.076 641.07c-.127 33.347 19.712 68.352 69.48 102.585 72.924 50.162 127.043 30.371 179.536 18.446C293.713 752.193 334.829 742.284 381 768c101.734 56.664 171.729-3.169 278.732-73.926 28.455-18.816 41.879-41.079 43.434-65.137.406-6.265 1.307-79.435 1.315-145.359v-1.882c-.006-52.14-.582-99.289-2.417-104.528-20.366-58.141-99.462-48.075-190.809-97.041-98.309-52.697-187.225-83.169-266.122-83.165-43.502.002-83.969 9.269-121.262 29.184-55.905 29.853-109.06 5.705-122.796 51.95z" fill="url(#paint0_linear)"></path>
    <path fill-rule="evenodd" clip-rule="evenodd" d="M659.732 461.199c-107.002 70.757-174.995 9.559-276.729-47.106-101.734-56.663-178.924 59.634-312.448-32.212-133.524-91.848-51.612-189.253 53.316-245.285 104.928-56.032 234.87-27.772 387.384 53.982 149.933 80.37 255.48 199.864 148.477 270.621z" fill="#C59FFF"></path>
    <path fill-rule="evenodd" clip-rule="evenodd" d="M241.283 297.197c.202 3.189 4.452 5.413 4.452 5.413l196.579 109.225s5.62 3.559 12.39 0c7.27-3.822 157.111-91.801 157.111-91.801s6.18-2.837 6.616-7.905c.012.216.026.432.026.664v8.01c0 5.421-6.642 8.468-6.642 8.468s-149.841 83.067-157.111 86.889c-6.77 3.559-12.39 0-12.39 0L245.735 306.936s-4.471-2.333-4.471-5.646v-3.084c.004-.078.007-.941.012-1.552l.007.543" fill="#DDDDFC"></path>
    <path fill-rule="evenodd" clip-rule="evenodd" d="M245.096 290.706l162.986-95.605c5.876-3.191 10.091 0 10.091 0l193.642 107.752s6.641 3.558 6.641 8.713c0 .191-.01.378-.026.562-.435 5.068-6.615 7.906-6.615 7.906s-149.841 87.979-157.111 91.801c-6.77 3.559-12.39 0-12.39 0L245.734 302.61s-4.248-2.225-4.451-5.413a954.897 954.897 0 01-.019-2.014c0-2.556 3.832-4.477 3.832-4.477" fill="#F6F6FF"></path>
    <path fill-rule="evenodd" clip-rule="evenodd" d="M625.936 303.516c.169-.1.33-.205.486-.314 4.274-3 3.572-9.547 3.572-9.547s.006-163.809-.39-171.762c-.369-7.406-6.461-10.158-6.461-10.158L423.638 2.609s-4.191-2.323-7.127-.827c-.024.012-.227.128-.487.277l-.458.263h.001c.81-.517 2.418-1.292 2.936-1.59.258-.149.462-.264.485-.276 2.937-1.496 8.229 1.17 8.229 1.17l199.505 109.126s6.091 2.752 6.46 10.159c.397 7.953.39 171.761.39 171.761s.703 6.547-3.572 9.547a7.087 7.087 0 01-.485.314c-4.577 2.687-9.057 1.887-9.057 1.887h-.001c1.814.224 3.787.09 5.479-.904" fill="#DDDDFC"></path>
    <path fill-rule="evenodd" clip-rule="evenodd" d="M414.711 2.817l.855-.495.458-.263c.26-.149.462-.265.486-.277 2.937-1.496 7.129.827 7.129.827l199.504 109.126s6.092 2.752 6.46 10.158c.398 7.954.39 171.762.39 171.762s.704 6.547-3.571 9.546a7.648 7.648 0 01-.486.315c-1.692.994-3.665 1.128-5.478.904-3.093-.382-5.723-1.806-5.723-1.806L418.07 192.742s-5.033-1.792-5.261-8.273l-.076-176.176s-.291-4.144 1.978-5.476" fill="#F6F6FF"></path>
    <path fill-rule="evenodd" clip-rule="evenodd" d="M563.872 307.527l-.032-.238c.004.08.015.159.032.238m-.034-.251l.002.014v-.014h-.002zm26.408 1.736l-10.048 5.538c-1.816 1.001-2.993.906-4.497.12l-10.815-5.927c-.611-.363-.918-.785-1.014-1.216l.115.853c.076.437.464.801.942 1.084l10.816 5.927c1.503.786 2.68.882 4.495-.118l10.049-5.54c.62-.342 1.212-.582 1.273-1.267l.081-1.255h-.005c-.031.688-.532 1.326-1.392 1.801m-46.21-12.491l-.032-.237c.004.078.015.158.032.237m-.034-.25l.002.012v-.012h-.002zm26.407 1.735l-10.047 5.539c-1.815 1.001-2.993.904-4.497.119l-10.815-5.928c-.611-.36-.917-.784-1.014-1.215l.116.854c.076.437.462.8.941 1.083l10.817 5.928c1.502.785 2.679.881 4.494-.12l10.05-5.539c.618-.342 1.212-.582 1.271-1.267l.082-1.256-.005.001c-.031.688-.532 1.327-1.393 1.801m-19.619-11.165l-10.048 5.539c-1.815 1-2.993.905-4.497.119l-10.815-5.928c-.611-.36-.918-.785-1.014-1.216l.115.855c.076.436.464.799.942 1.082l10.815 5.928c1.504.786 2.681.881 4.496-.119l10.049-5.539c.619-.342 1.211-.582 1.272-1.267l.082-1.255h-.005c-.031.687-.532 1.326-1.392 1.801m-45.513-13.056l-.032-.238c.004.08.015.159.032.238m-.034-.25l.002.012v-.012h-.002zm26.408 1.734l-10.048 5.54c-1.816 1-2.993.905-4.496.119l-10.816-5.927c-.611-.363-.918-.786-1.014-1.216l.115.853c.076.438.464.801.942 1.083l10.816 5.928c1.503.786 2.68.882 4.496-.119l10.048-5.539c.619-.342 1.212-.582 1.273-1.267l.081-1.256h-.006c-.03.689-.531 1.328-1.391 1.801m-46.21-12.49l-.033-.238c.005.079.016.159.033.238m-.034-.251l.002.014v-.014h-.002zm26.408 1.736l-10.048 5.539c-1.815 1.001-2.992.905-4.496.119l-10.816-5.928c-.612-.36-.918-.784-1.014-1.215l.115.854c.076.437.463.8.943 1.083l10.815 5.928c1.504.785 2.68.881 4.495-.12l10.049-5.539c.619-.342 1.213-.581 1.272-1.267l.081-1.256-.004.001c-.03.688-.531 1.326-1.392 1.801m-19.621-11.166l-10.048 5.54c-1.814 1.001-2.992.905-4.496.119l-10.816-5.928c-.61-.36-.918-.785-1.013-1.217l.115.856c.076.437.464.799.942 1.082l10.815 5.927c1.504.787 2.681.883 4.496-.118l10.049-5.54c.62-.34 1.211-.582 1.272-1.266l.081-1.256h-.005c-.03.688-.531 1.326-1.392 1.801m-45.978-12.737l.001.013v-.013h-.001zm26.407 1.735l-10.048 5.538c-1.815 1.002-2.992.905-4.497.12l-10.815-5.927c-.61-.362-.917-.786-1.013-1.216l.115.854c.074.437.463.799.942 1.083l10.815 5.927c1.503.786 2.681.882 4.496-.119l10.048-5.539c.62-.342 1.211-.582 1.272-1.267l.083-1.256h-.005c-.031.689-.533 1.327-1.393 1.802m-46.209-12.49l-.033-.239c.005.079.016.158.033.239m-.034-.252l.001.014v-.014h-.001zm26.407 1.736l-10.047 5.539c-1.815 1.001-2.994.905-4.497.119l-10.816-5.928c-.61-.36-.917-.785-1.013-1.215l.115.854c.076.437.463.8.942 1.083l10.816 5.927c1.503.786 2.68.882 4.495-.119l10.049-5.54c.619-.34 1.211-.581 1.272-1.265l.081-1.256h-.004c-.031.688-.532 1.326-1.393 1.801m-19.619-11.166l-10.049 5.54c-1.814 1.001-2.992.905-4.497.119l-10.816-5.928c-.61-.36-.916-.785-1.012-1.216l.115.856c.075.435.464.798.941 1.081l10.816 5.928c1.502.786 2.681.881 4.496-.119l10.047-5.54c.62-.341 1.213-.581 1.273-1.266l.081-1.256h-.003c-.031.688-.532 1.327-1.392 1.801m111.19 98.768l-.032-.237c.005.08.015.158.032.237m-.033-.25l.001.013v-.013h-.001zm-19.803-10.755l-.032-.238c.005.079.016.158.032.238m-.034-.251l.002.013v-.013h-.002z" fill="#DDDDFC"></path>
    <path fill-rule="evenodd" clip-rule="evenodd" d="M550.896 309.172l-10.047 5.539c-1.815 1.001-2.993.904-4.497.118l-10.816-5.927c-.61-.361-.917-.785-1.014-1.215l.116.854c.076.437.462.799.942 1.083l10.816 5.928c1.502.785 2.68.881 4.495-.12l10.049-5.539c.619-.342 1.211-.582 1.272-1.268l.081-1.255-.004.001c-.03.688-.532 1.326-1.393 1.801m-19.62-11.166l-10.048 5.539c-1.815 1.001-2.993.905-4.496.119l-10.817-5.928c-.61-.36-.916-.785-1.013-1.215l.115.855c.075.436.463.799.942 1.081l10.815 5.928c1.504.787 2.683.882 4.497-.119l10.048-5.539c.619-.341 1.213-.582 1.273-1.266l.081-1.256h-.005c-.031.688-.532 1.327-1.392 1.801m-45.512-13.056l-.033-.237c.004.08.015.158.033.237m-.034-.25l.001.013v-.013h-.001zm26.407 1.735l-10.048 5.538c-1.815 1.002-2.992.906-4.496.121l-10.816-5.927c-.61-.363-.918-.786-1.013-1.217l.115.854c.075.437.463.8.941 1.084l10.816 5.927c1.502.786 2.681.881 4.496-.119l10.049-5.539c.619-.342 1.211-.583 1.272-1.268l.081-1.254h-.004c-.031.687-.532 1.325-1.393 1.8m-46.21-12.49l-.032-.238c.005.079.016.159.032.238m-.034-.251l.002.013v-.013h-.002zm26.408 1.735l-10.048 5.54c-1.814 1.001-2.992.904-4.495.119l-10.817-5.928c-.61-.361-.917-.785-1.014-1.215l.116.853c.076.438.462.801.942 1.083l10.816 5.928c1.502.785 2.68.882 4.495-.119l10.049-5.54c.619-.341 1.211-.581 1.271-1.266l.082-1.256h-.005c-.03.689-.531 1.327-1.392 1.801m-19.62-11.165l-10.047 5.539c-1.816 1.001-2.994.905-4.497.119l-10.817-5.927c-.61-.361-.916-.786-1.013-1.216l.116.855c.074.436.464.799.941 1.081l10.816 5.928c1.503.786 2.681.882 4.496-.119l10.048-5.539c.619-.341 1.213-.582 1.272-1.267l.082-1.255h-.005c-.031.688-.532 1.326-1.392 1.801m-45.945-12.488l-.032-.237c.005.079.015.159.032.237m-.034-.25l.002.013v-.013h-.002zm26.407 1.735l-10.047 5.538c-1.815 1.002-2.993.905-4.496.121l-10.817-5.928c-.61-.362-.917-.785-1.013-1.216l.115.854c.076.437.464.8.941 1.083l10.817 5.928c1.502.786 2.681.881 4.495-.12l10.049-5.538c.619-.342 1.211-.583 1.273-1.268l.081-1.255h-.005c-.03.688-.532 1.327-1.393 1.801m-46.209-12.49l-.032-.238c.004.079.016.159.032.238m-.034-.251l.002.014v-.014h-.002zm26.407 1.736l-10.047 5.539c-1.815 1-2.992.904-4.496.118l-10.816-5.928c-.61-.36-.917-.783-1.014-1.214l.115.854c.077.436.463.799.943 1.082l10.816 5.928c1.502.785 2.68.882 4.495-.119l10.049-5.539c.619-.342 1.211-.582 1.271-1.267l.082-1.256h-.005c-.031.689-.532 1.327-1.393 1.802m90.002 87.602l-.032-.238c.003.08.015.158.032.238m-.034-.25l.002.013c-.001-.005.001-.009-.001-.013h-.001zm-19.802-10.756l-.032-.237c.004.079.016.158.032.237m-.034-.25l.002.013v-.013h-.002zm26.408 1.735l-10.048 5.539c-1.815 1.001-2.993.905-4.496.119l-10.817-5.928c-.61-.36-.917-.784-1.013-1.215l.115.854c.076.437.463.8.943 1.083l10.816 5.928c1.502.785 2.679.881 4.495-.12l10.048-5.539c.619-.342 1.212-.582 1.273-1.267l.081-1.256-.005.001c-.031.688-.532 1.327-1.392 1.801m-19.62-11.165l-10.049 5.539c-1.814 1.001-2.991.905-4.496.119l-10.816-5.927c-.611-.361-.917-.786-1.013-1.217l.115.855c.076.436.464.799.941 1.082l10.817 5.928c1.502.786 2.68.882 4.496-.119l10.048-5.539c.619-.342 1.212-.582 1.271-1.267l.081-1.255h-.002c-.032.687-.533 1.326-1.393 1.801m-45.513-13.056l-.032-.238c.003.08.015.158.032.238m-.034-.25l.002.013c-.001-.006.001-.009-.001-.013h-.001zm26.407 1.734l-10.047 5.54c-1.816 1.001-2.993.905-4.497.119l-10.816-5.927c-.609-.363-.917-.786-1.013-1.216l.115.853c.075.437.463.801.943 1.084l10.814 5.927c1.503.786 2.682.882 4.497-.119l10.047-5.539c.62-.342 1.213-.582 1.274-1.267l.081-1.255h-.005c-.031.688-.533 1.327-1.393 1.8m-46.209-12.49l-.032-.237c.004.078.015.158.032.237m-.034-.25l.002.013v-.013h-.002zm26.408 1.735l-10.047 5.539c-1.816 1.001-2.994.904-4.497.119l-10.817-5.928c-.61-.36-.917-.784-1.013-1.215l.116.855c.075.436.462.799.942 1.082l10.816 5.928c1.502.785 2.679.881 4.495-.12l10.048-5.539c.619-.342 1.212-.582 1.273-1.266l.081-1.257-.005.001c-.031.688-.532 1.327-1.392 1.801m-19.62-11.166l-10.049 5.54c-1.814 1.001-2.992.904-4.496.119l-10.816-5.928c-.61-.361-.918-.786-1.013-1.216l.115.855c.075.436.463.8.941 1.082l10.816 5.928c1.503.786 2.681.882 4.497-.119l10.047-5.54c.62-.341 1.213-.581 1.273-1.266l.08-1.256h-.003c-.031.688-.532 1.327-1.392 1.801m-45.945-12.487l-.033-.238c.004.081.016.159.033.238m-.034-.251l.001.013v-.013h-.001zm26.407 1.736l-10.048 5.539c-1.815 1.001-2.992.905-4.496.12l-10.816-5.928c-.609-.363-.918-.786-1.013-1.216l.115.853c.075.438.463.801.941 1.084l10.816 5.928c1.503.785 2.682.881 4.496-.12l10.048-5.539c.62-.342 1.212-.582 1.273-1.267l.081-1.255h-.004c-.031.688-.533 1.326-1.393 1.801m-46.209-12.49l-.032-.238c.004.078.015.158.032.238m-.034-.252l.002.014v-.014h-.002zm26.407 1.736l-10.047 5.539c-1.815 1.001-2.993.905-4.496.119l-10.817-5.928c-.61-.36-.918-.784-1.013-1.214l.115.853c.075.437.463.8.942 1.082l10.815 5.929c1.503.785 2.681.881 4.497-.12l10.048-5.539c.619-.342 1.212-.581 1.271-1.266l.081-1.256-.003.001c-.031.687-.533 1.325-1.393 1.8m1.463-22.154l-10.046 5.539c-1.816 1.001-2.993.904-4.497.119l-10.816-5.928c-.61-.361-.917-.784-1.014-1.215l.115.854c.077.437.463.8.943 1.082l10.816 5.929c1.502.785 2.679.881 4.495-.12l10.049-5.539c.619-.342 1.212-.582 1.271-1.267l.082-1.256-.005.001c-.031.688-.532 1.327-1.393 1.801m-21.083 11.166l-10.047 5.539c-1.815 1-2.993.904-4.496.118l-10.816-5.928c-.611-.36-.919-.784-1.014-1.214l.115.854c.075.436.463.799.943 1.083l10.815 5.927c1.503.785 2.68.882 4.496-.119l10.048-5.54c.62-.341 1.212-.581 1.271-1.267l.081-1.255-.003.001c-.031.687-.532 1.326-1.393 1.801" fill="#DDDDFC"></path>
    <path fill-rule="evenodd" clip-rule="evenodd" d="M570.481 320.256l-31.132 16.639c-1.815 1.001-2.992.905-4.495.119l-10.816-5.927c-.612-.361-.917-.786-1.014-1.217l.115.856c.075.436.465.799.942 1.082l10.817 5.928c1.502.785 2.68.881 4.496-.12l31.13-16.639c.619-.341 1.213-.582 1.273-1.266l.082-1.256h-.006c-.031.688-.532 1.327-1.392 1.801m-66.719 20.767l-.033-.237c.004.08.015.158.033.237m-.034-.25l.001.013v-.013h-.001zm26.407 1.735l-10.048 5.539c-1.815 1.001-2.992.905-4.495.12l-10.817-5.927c-.61-.363-.918-.786-1.013-1.217l.114.854c.076.437.464.8.941 1.084l10.817 5.926c1.503.786 2.681.882 4.496-.118l10.048-5.539c.62-.342 1.212-.583 1.273-1.267l.081-1.255h-.004c-.032.687-.533 1.326-1.393 1.8m-46.209-12.49l-.033-.237c.004.078.016.157.033.237m-.034-.251l.001.013c.002-.004 0-.009 0-.013h-.001zm26.406 1.736l-10.047 5.539c-1.815 1-2.991.904-4.496.118l-10.816-5.927c-.609-.361-.917-.784-1.013-1.215l.114.854c.077.436.464.799.943 1.083l10.816 5.927c1.503.786 2.679.882 4.495-.119l10.049-5.539c.619-.342 1.212-.582 1.272-1.267l.081-1.256-.004.001c-.031.688-.532 1.326-1.394 1.801m-19.619-11.166l-10.048 5.539c-1.815 1.001-2.993.905-4.496.119l-10.817-5.927c-.61-.361-.917-.786-1.013-1.216l.115.855c.076.436.464.799.942 1.082l10.816 5.927c1.502.787 2.68.882 4.496-.119l10.048-5.539c.619-.341 1.212-.582 1.273-1.266l.081-1.256h-.005c-.03.688-.531 1.327-1.392 1.801m-45.513-13.056l-.032-.237c.004.08.015.158.032.237m-.033-.25l.001.013v-.013h-.001zm26.407 1.735l-10.048 5.539c-1.815 1.001-2.992.905-4.496.12l-10.816-5.927c-.61-.363-.918-.786-1.014-1.217l.116.854c.075.437.463.8.942 1.084l10.815 5.926c1.503.786 2.681.882 4.496-.118l10.048-5.539c.619-.342 1.212-.583 1.273-1.267l.082-1.255h-.005c-.032.687-.533 1.326-1.393 1.8m-46.209-12.49l-.033-.238c.004.079.016.158.033.238m-.034-.251l.001.013v-.013h-.001zm26.406 1.736l-10.047 5.539c-1.815 1-2.992.904-4.496.118l-10.816-5.927c-.609-.361-.917-.784-1.013-1.215l.114.854c.076.436.464.799.942 1.083l10.817 5.928c1.502.785 2.679.881 4.495-.12l10.048-5.539c.619-.342 1.212-.582 1.273-1.268l.081-1.255-.004.001c-.032.688-.533 1.326-1.394 1.801m-19.619-11.166l-10.048 5.539c-1.815 1.001-2.993.905-4.496.119l-10.816-5.927c-.611-.361-.918-.786-1.014-1.216l.116.855c.075.436.463.799.941 1.081l10.816 5.928c1.503.787 2.681.882 4.496-.119l10.048-5.539c.619-.341 1.212-.582 1.273-1.266l.081-1.256h-.005c-.031.688-.532 1.327-1.392 1.801m-45.944-12.488l-.033-.237c.004.08.014.158.033.237m-.035-.25l.002.013-.001-.013h-.001zm26.408 1.735l-10.048 5.539c-1.816 1.001-2.992.905-4.497.12l-10.815-5.927c-.61-.363-.918-.786-1.013-1.217l.113.854c.077.437.465.8.942 1.084l10.817 5.926c1.503.786 2.68.882 4.496-.118l10.047-5.539c.62-.342 1.213-.583 1.274-1.267l.081-1.255h-.005c-.031.687-.532 1.326-1.392 1.8m-46.21-12.49l-.032-.238c.004.079.015.158.032.238m-.035-.25l.003.013v-.013h-.003zm26.408 1.735l-10.048 5.539c-1.815 1.001-2.991.904-4.495.119l-10.816-5.928c-.611-.361-.917-.785-1.014-1.215l.115.854c.077.437.464.8.943 1.082l10.816 5.928c1.502.786 2.679.882 4.494-.119l10.048-5.54c.62-.341 1.214-.581 1.274-1.267l.081-1.255h-.004c-.032.689-.533 1.327-1.394 1.802m-19.62-11.166l-10.048 5.539c-1.815 1.001-2.992.905-4.497.119l-10.815-5.927c-.611-.36-.917-.786-1.013-1.216l.115.855c.076.435.464.799.942 1.081l10.815 5.928c1.503.787 2.681.882 4.497-.119l10.048-5.539c.619-.341 1.212-.582 1.271-1.266l.082-1.255h-.005c-.03.687-.531 1.325-1.392 1.8m109.629 98.767l-.031-.237c.004.08.014.158.031.237m-.033-.25l.002.013v-.013h-.002zm26.407 1.735l-10.048 5.539c-1.815 1.001-2.992.905-4.495.12l-10.817-5.927c-.61-.363-.917-.786-1.014-1.216l.116.853c.076.437.464.8.941 1.084l10.817 5.927c1.502.785 2.68.881 4.494-.119l10.049-5.539c.62-.342 1.212-.583 1.273-1.267l.082-1.255h-.005c-.032.688-.532 1.326-1.393 1.8m-46.209-12.49l-.033-.238c.005.079.016.158.033.238m-.034-.251l.001.013v-.013h-.001zm26.407 1.736l-10.048 5.539c-1.814 1-2.991.904-4.496.118l-10.815-5.927c-.61-.361-.918-.784-1.014-1.215l.115.854c.076.436.463.799.942 1.083l10.816 5.927c1.503.785 2.68.882 4.494-.119l10.05-5.539c.619-.342 1.212-.582 1.271-1.267l.082-1.256-.004.001c-.031.688-.532 1.326-1.393 1.801m-19.621-11.166l-10.047 5.539c-1.814 1.001-2.993.905-4.496.119l-88.982-50.63c-.611-.361-.918-.786-1.014-1.216l.115.855c.076.436.464.799.942 1.082l88.983 50.63c1.502.787 2.68.882 4.495-.118l10.049-5.54c.618-.341 1.211-.582 1.272-1.266l.081-1.256h-.006c-.029.688-.531 1.327-1.392 1.801" fill="#DDDDFC"></path>
    <path fill-rule="evenodd" clip-rule="evenodd" d="M424.091 318.446l-.033-.237c.005.08.016.159.033.237m-.034-.25l.001.013v-.013h-.001zm-19.802-10.755l-.033-.237c.005.078.016.158.033.237m-.034-.251l.001.013v-.013h-.001zm-39.158-21.918l-.031-.237c.003.08.014.158.031.237m-.034-.25l.003.013c-.002-.004 0-.009-.002-.013h-.001zm-19.801-10.755l-.033-.238c.004.079.015.158.033.238m-.034-.251l.001.013v-.013h-.001zm26.406 1.736l-10.047 5.539c-1.815 1.001-2.993.904-4.496.118l-10.816-5.927c-.61-.361-.917-.784-1.013-1.215l.114.853c.077.438.464.8.942 1.084l10.817 5.928c1.503.785 2.679.881 4.494-.119l10.049-5.54c.62-.342 1.213-.581 1.272-1.268l.082-1.254h-.004c-.031.688-.533 1.326-1.394 1.801m-19.619-11.166l-10.048 5.54c-1.815 1-2.993.904-4.496.119l-10.816-5.928c-.611-.361-.918-.786-1.014-1.217l.115.856c.076.435.464.799.942 1.082l10.816 5.928c1.503.786 2.68.881 4.496-.119l10.048-5.54c.619-.341 1.212-.582 1.272-1.267l.081-1.255h-.004c-.031.688-.531 1.326-1.392 1.801" fill="#DDDDFC"></path>
    <path fill-rule="evenodd" clip-rule="evenodd" d="M415.805 13.328l.072 167.05c.217 6.145 4.988 7.844 4.988 7.844l191.59 107.619s2.494 1.35 5.426 1.712c1.719.213 3.589.085 5.194-.857.161-.095.317-.19.461-.298 3.428-2.567 3.387-9.053 3.387-9.053V124.482c-.35-7.021-6.495-9.631-6.495-9.631L422.85 6.144s-3.811-2.063-5.476-.247c-1.771 1.93-1.569 3.108-1.569 7.431" fill="#C86DD7"></path>
    <path fill-rule="evenodd" clip-rule="evenodd" d="M595.894 334.398l6.874-3.936c1.066-.609 1.694-2.076 1.103-3.116a2.279 2.279 0 011.672 1.046c.646 1.043.011 2.552-1.074 3.173l-6.872 3.936a2.36 2.36 0 01-2.013.146 2.24 2.24 0 01-1.124-.909c-.012-.018-.02-.038-.031-.058a2.314 2.314 0 001.465-.282" fill="#B6B6DD"></path>
    <path fill-rule="evenodd" clip-rule="evenodd" d="M595.533 331.565l6.873-3.935a2.343 2.343 0 011.464-.284c.592 1.04-.037 2.507-1.102 3.116l-6.874 3.937a2.335 2.335 0 01-1.465.282c-.59-1.04.039-2.506 1.104-3.116" fill="#C7C7EA"></path>
    <path fill-rule="evenodd" clip-rule="evenodd" d="M468.46 47.225v159.107l104.305 57.432V104.656L468.46 47.226z" fill="#fff"></path>
    <path fill-rule="evenodd" clip-rule="evenodd" d="M468.46 58.946l104.305 57.43v57.726L468.46 116.67V58.946zm12.557 97.22v15.324l20.696 11.335v-15.114l-20.696-11.545zm12.309-16.53v4.512l53.342 29.651v-4.304l-53.342-29.859zm9.014 12.778v3.752l35.508 19.504v-3.543l-35.508-19.713zm-21.323 21.385v1.993l20.696 11.336v-1.784l-20.696-11.545zm0 4.747v1.994l16.462 9.113v-1.784l-16.462-9.323zm28.01-6.877v15.323l20.696 11.336v-15.114l-20.696-11.545zm0 17.632v1.995l20.696 11.335v-1.784l-20.696-11.546zm0 4.397v1.993l16.464 9.114v-1.785l-16.464-9.322zm27.915-6.527v15.324l20.696 11.336v-15.115l-20.696-11.545zm.054 38.816v7.266l18.256 9.996v-7.055l-18.256-10.207zm-.054-21.182v1.993l20.696 11.336v-1.784l-20.696-11.545zm.054 4.365v1.994l16.463 9.113v-1.784l-16.463-9.323z" fill="#DDDDFC"></path>
    <path fill-rule="evenodd" clip-rule="evenodd" d="M536.996 225.987l1.312-.64 18.033 10.205-1.089.642-18.256-10.207z" fill="#E4E4F4"></path>
    <path fill-rule="evenodd" clip-rule="evenodd" d="M555.252 236.194l1.089-.642v7.055l-1.089.642v-7.055z" fill="#CECEEF"></path>
    <path fill-rule="evenodd" clip-rule="evenodd" d="M474.63 55.521c.849-.675 2.171-.483 2.952.43.782.911.728 2.199-.12 2.874-.85.676-2.171.484-2.953-.428-.782-.913-.728-2.2.121-2.876" fill="#E8F0F4"></path>
    <path fill-rule="evenodd" clip-rule="evenodd" d="M244.615 221.113S134.217 282.74 130.594 284.76c-6.329 3.53-12.011-.551-12.011-.551l-71.967-39.987s-2.077-.913-2.122-3.244c-.002-.012-.005-.022-.005-.033v3.889c0 1.687 2.562 3.103 2.562 3.103l72.139 40.785s5.499 3.614 11.818.011c3.603-2.054 113.607-64.256 113.607-64.256s3.348-1.551 3.348-4.31v-2.457c-.239 2.014-3.348 3.403-3.348 3.403" fill="#DDDDFC"></path>
    <path fill-rule="evenodd" clip-rule="evenodd" d="M243.479 212.886l-68.206-38.643s-5.926-4.189-12.724-.362l-115.82 63.794s-2.24 1.042-2.24 3.229c0 .026.003.049.005.074.045 2.331 2.122 3.244 2.122 3.244l71.967 39.987s5.682 4.081 12.011.551c3.623-2.021 114.021-63.647 114.021-63.647s3.109-1.389 3.348-3.403c.275-2.303-4.484-4.824-4.484-4.824" fill="#F6F6FF"></path>
    <path fill-rule="evenodd" clip-rule="evenodd" d="M237.109 217.96l-97.992 54.551-70.253-39.067 97.39-55.06 70.855 39.576z" fill="#C86DD7"></path>
    <path fill-rule="evenodd" clip-rule="evenodd" d="M87.067 257.736c0-1.666 2.316-3.016 5.173-3.016 2.855 0 5.172 1.35 5.172 3.016s-2.317 3.017-5.172 3.017c-2.857 0-5.173-1.351-5.173-3.017m-.408 0c0 1.797 2.498 3.255 5.58 3.255s5.58-1.458 5.58-3.255-2.498-3.254-5.58-3.254-5.58 1.457-5.58 3.254" fill="#D8D8D8"></path>
    <path fill-rule="evenodd" clip-rule="evenodd" d="M274.177 107.275l.06 1.166c.468 7.735 4.336 51.365 32.349 58.991 22.459 5.618 28.815-2.507 29.536-3.569l3.337-65.734h-65.745l.463 9.132v.014z" fill="#fff"></path>
    <path fill-rule="evenodd" clip-rule="evenodd" d="M306.586 167.432c-28.013-7.626-31.881-51.255-32.35-58.991l3.041 59.881c0 9.095 13.121 16.47 29.309 16.47 16.187 0 29.31-7.375 29.31-16.47l.226-4.459c-.72 1.062-7.078 9.187-29.536 3.569" fill="#F6F6FF"></path>
    <path fill-rule="evenodd" clip-rule="evenodd" d="M306.586 178.86c-15.463 0-28.167-6.631-29.608-15.109-.09.53-.14 1.065-.14 1.608 0 9.233 13.319 16.719 29.748 16.719 16.43 0 29.749-7.486 29.749-16.719 0-.543-.05-1.078-.14-1.608-1.44 8.478-14.144 15.109-29.609 15.109" fill="#F0F0FC"></path>
    <path fill-rule="evenodd" clip-rule="evenodd" d="M338.763 96.008c0 9.987-14.406 18.083-32.177 18.083s-32.178-8.096-32.178-18.083c0-9.986 14.407-18.081 32.178-18.081 17.771 0 32.177 8.094 32.177 18.081" fill="#fff"></path>
    <path fill-rule="evenodd" clip-rule="evenodd" d="M306.586 119.224c-17.026 0-31.014-7.301-32.6-16.637-.1.584-.155 1.174-.155 1.771 0 10.166 14.665 18.409 32.755 18.409 18.089 0 32.756-8.243 32.756-18.409 0-.597-.056-1.187-.155-1.771-1.586 9.336-15.574 16.637-32.601 16.637" fill="#F0F0FC"></path>
    <path fill-rule="evenodd" clip-rule="evenodd" d="M306.586 103.783c-16.719 0-30.453-7.17-32.01-16.336a10.303 10.303 0 00-.151 1.74c0 9.981 14.398 18.075 32.161 18.075s32.163-8.094 32.163-18.075c0-.588-.055-1.167-.151-1.74-1.559 9.166-15.295 16.336-32.012 16.336" fill="#FCFCFC"></path>
    <path fill-rule="evenodd" clip-rule="evenodd" d="M307.237 113.725c12.481 1.126 20.101-.631 24.738-3 3.049-1.939 5.403-4.228 6.85-6.748.149-.383.199-.61.199-.61s.036.02.102.051c.863-1.679 1.335-3.453 1.335-5.29 0-10.513-15.166-19.036-33.875-19.036-15.009 0-27.731 5.488-32.178 13.086-.016.53-.325 18.967 32.829 21.547" fill="#fff"></path>
    <path fill-rule="evenodd" clip-rule="evenodd" d="M306.586 117.166c10.112 0 19.183-2.493 25.39-6.441-4.638 2.368-12.258 4.126-24.739 3-33.154-2.58-32.844-21.017-32.829-21.547-1.097 1.872-1.697 3.872-1.697 5.951 0 10.513 15.167 19.037 33.875 19.037" fill="#F6F6FF"></path>
    <path fill-rule="evenodd" clip-rule="evenodd" d="M338.594 89.455c0 9.934-14.33 17.988-32.008 17.988-17.678 0-32.009-8.054-32.009-17.988 0-9.935 14.331-17.988 32.009-17.988s32.008 8.053 32.008 17.988" fill="#fff"></path>
    <path fill-rule="evenodd" clip-rule="evenodd" d="M306.586 71.677c-17.53 0-31.792 7.975-31.792 17.778 0 9.803 14.262 17.778 31.792 17.778 17.531 0 31.792-7.975 31.792-17.778 0-9.803-14.261-17.778-31.792-17.778m0 35.974c-17.769 0-32.225-8.162-32.225-18.196s14.456-18.197 32.225-18.197c17.769 0 32.225 8.163 32.225 18.197 0 10.034-14.456 18.196-32.225 18.196" fill="#F7F7F7"></path>
    <path fill-rule="evenodd" clip-rule="evenodd" d="M304.417 100.151h7.138c.179 0 .35.037.504.103l.003-.042c0-.672-.562-1.217-1.255-1.217h-7.139c-.694 0-1.256.545-1.256 1.217 0 .5.31.927.752 1.116.023-.653.573-1.177 1.253-1.177" fill="#DADEE0"></path>
    <path fill-rule="evenodd" clip-rule="evenodd" d="M310.806 101.431c.68 0 1.23-.524 1.253-1.176a1.262 1.262 0 00-.504-.104h-7.138c-.679 0-1.23.524-1.252 1.177.154.065.324.103.502.103h7.139z" fill="#E8E8E8"></path>
    <defs>
      <linearGradient id="paint0_linear" x1="669.208" y1="731.078" x2="669.208" y2="196.962" gradientUnits="userSpaceOnUse">
        <stop stop-color="#fff"></stop>
        <stop offset="1" stop-color="#DDF"></stop>
      </linearGradient>
    </defs>
  </symbol>
  <symbol fill="none" xmlns="http://www.w3.org/2000/svg" viewBox="0 0 32 32" id="facebook">
    <path fill-rule="evenodd" clip-rule="evenodd" d="M16 0C7.164 0 0 7.164 0 16s7.164 16 16 16 16-7.164 16-16S24.836 0 16 0zm0 2.667c7.352 0 13.333 5.981 13.333 13.333S23.352 29.333 16 29.333 2.667 23.352 2.667 16 8.648 2.667 16 2.667zm-5.333 10.666h2.666v-2.256C13.333 9.056 14.397 8 16.795 8H20v3.333h-1.923c-.616 0-.744.252-.744.89v1.11H20L19.76 16h-2.427v8h-4v-8h-2.666v-2.667z" fill="#fff"></path>
  </symbol>
  <symbol fill="none" xmlns="http://www.w3.org/2000/svg" viewBox="0 0 48 48" id="consequuntur">
    <path fill-rule="evenodd" clip-rule="evenodd" d="M6 6a6 6 0 0112 0A6 6 0 016 6zm8 0c0-1.102-.896-2-2-2s-2 .898-2 2c0 1.102.896 2 2 2s2-.898 2-2zm30 18a2 2 0 00-4 0 2 2 0 004 0zM12 40c1.104 0 2 .898 2 2 0 1.102-.896 2-2 2s-2-.898-2-2c0-1.102.896-2 2-2zm30-22a6 6 0 000 12 6 6 0 000-12zM6 42a6 6 0 1112 0 6 6 0 01-12 0z" fill="#C86DD7"></path>
    <path fill-rule="evenodd" clip-rule="evenodd" d="M21.176 2.042L22 2c8.562 0 15.962 4.9 19.6 12.042a9.867 9.867 0 00-3.996 1.022C34.494 9.658 28.672 6 22 6a9.934 9.934 0 00-.824-3.958zM41.6 33.958C37.962 41.1 30.562 46 22 46l-.824-.042A9.934 9.934 0 0022 42c6.672 0 12.494-3.658 15.604-9.064a9.803 9.803 0 003.996 1.022zM0 24c0 4.57 1.394 8.812 3.78 12.33a10.03 10.03 0 012.974-2.806A17.87 17.87 0 014 24c0-3.5 1.02-6.758 2.754-9.524A10.054 10.054 0 013.78 11.67 21.888 21.888 0 000 24z" fill="#FFC300"></path>
  </symbol>
  <symbol fill="none" xmlns="http://www.w3.org/2000/svg" viewBox="0 0 48 48" id="Bitmap">
    <path fill-rule="evenodd" clip-rule="evenodd" d="M22 12v16h14v-4H26V12h-4zm21.708 15.366l3.996.318a23.883 23.883 0 01-1.304 4.92l-3.6-1.81c.4-1.102.706-2.246.908-3.428zm-7.922 12.766l2.826 2.886a23.86 23.86 0 01-4.598 2.778l-1.338-3.798a19.891 19.891 0 003.11-1.866zm5.278-5.732a20.182 20.182 0 01-2.298 3.056l2.808 2.866a24.075 24.075 0 003.078-4.116L41.064 34.4zm2.33-15.118h4.152c.284 1.428.434 2.906.454 4.416l-4.03-.322a20.324 20.324 0 00-.576-4.094z" fill="#C86DD7"></path>
    <path d="M0 24c0 13.254 10.75 24 24.008 24 2.162 0 4.248-.312 6.24-.848l-1.33-3.788a19.89 19.89 0 01-4.91.636C12.976 44 4.002 35.028 4.002 24S12.976 4 24.008 4c4.47 0 8.586 1.488 11.918 3.978l-4.1 4.098 14.03 2.708L43.146.758l-4.368 4.366C34.706 1.928 29.588 0 24.008 0 10.75 0 0 10.746 0 24z" fill="#FFC300"></path>
  </symbol>
  <symbol fill="none" xmlns="http://www.w3.org/2000/svg" viewBox="0 0 50 46" id="aliquid">
    <path d="M17.419 23.452L40.55 0 50 9.48 26.87 32.936l-12.287 2.61 2.836-12.094z" fill="#C86DD7"></path>
    <path fill-rule="evenodd" clip-rule="evenodd" d="M14.583 16.727h3.632l4.12-4.182h-7.752v4.182zM37.5 28.123l4.167-4.23v9.562H37.5v-5.332zM27.083 41.818V46h-12.5v-4.182h12.5zm-16.666 0h-6.25v-4.182H0V46h10.417v-4.182zm27.083 0v-4.182h4.167V46H31.25v-4.182h6.25zM0 33.455h4.167V25.09H0v8.364zm4.167-16.728v4.182H0v-8.364h10.417v4.182h-6.25z" fill="#FFC300"></path>
    <path d="M20.14 30.092l4.645-.986 19.336-19.61-3.556-3.568-19.36 19.63-1.065 4.534z" fill="#fff"></path>
  </symbol>
</svg>